<svg width="74" height="74" viewBox="0 0 74 74" fill="none" xmlns="http://www.w3.org/2000/svg">
<g id="Docs LP ">
<g id="alt">
<g id="Frame 2147256818">
<g id="Row">
<g id="Frame 2055247551">
<g id="Column 3">
<g id="From brief to launc plan - icon">
<g clip-path="url(#clip0_10489_9164)">
<path id="Rectangle 427323000" d="M1 13C1 6.37258 6.37258 1 13 1H61C67.6274 1 73 6.37258 73 13V61C73 67.6274 67.6274 73 61 73H13C6.37258 73 1 67.6274 1 61V13Z" fill="url(#paint0_linear_10489_9164)"/>
<g id="robot">
<g id="glyph">
<path d="M32.05 32.5C33.2926 32.5 34.3 33.5074 34.3 34.75C34.3 35.9926 33.2926 37 32.05 37C30.8074 37 29.8 35.9926 29.8 34.75C29.8 33.5074 30.8074 32.5 32.05 32.5Z" fill="#421D24"/>
<path d="M41.95 32.5C43.1926 32.5 44.2 33.5074 44.2 34.75C44.2 35.9926 43.1926 37 41.95 37C40.7074 37 39.7 35.9926 39.7 34.75C39.7 33.5074 40.7074 32.5 41.95 32.5Z" fill="#421D24"/>
<path d="M38.35 24.4018C40.4274 24.4021 42.0941 24.4073 43.4459 24.5336C44.9135 24.6707 46.147 24.9575 47.2463 25.6164C48.4519 26.3391 49.4609 27.3481 50.1836 28.5537C50.8425 29.653 51.1293 30.8865 51.2664 32.3541C51.2972 32.6835 51.3202 33.0317 51.3385 33.4H55V36.1H51.3912C51.3939 36.6647 51.4 37.2638 51.4 37.9C51.4 40.1884 51.4017 41.9979 51.2664 43.4459C51.1293 44.9135 50.8425 46.147 50.1836 47.2463C49.4609 48.4519 48.4519 49.4609 47.2463 50.1836C46.147 50.8425 44.9135 51.1293 43.4459 51.2664C41.9979 51.4017 40.1884 51.4 37.9 51.4H36.1C33.8116 51.4 32.0021 51.4017 30.5541 51.2664C29.0865 51.1293 27.853 50.8425 26.7537 50.1836C25.5481 49.4609 24.5391 48.4519 23.8164 47.2463C23.1575 46.147 22.8707 44.9135 22.7336 43.4459C22.5983 41.9979 22.6 40.1884 22.6 37.9C22.6 37.2638 22.6061 36.6647 22.6088 36.1H19V33.4H22.6615C22.6798 33.0317 22.7028 32.6835 22.7336 32.3541C22.8707 30.8865 23.1575 29.653 23.8164 28.5537C24.5391 27.3481 25.5481 26.3391 26.7537 25.6164C27.853 24.9575 29.0865 24.6707 30.5541 24.5336C31.9059 24.4073 33.5726 24.4021 35.65 24.4018V19.9H38.35V24.4018ZM25.423 43.1945C25.542 44.4682 25.7661 45.2479 26.1314 45.8576C26.626 46.6828 27.3172 47.374 28.1424 47.8685C28.752 48.2339 29.5318 48.458 30.8055 48.5769C32.0988 48.6977 33.7604 48.7 36.1 48.7H37.9C40.2396 48.7 41.9012 48.6977 43.1945 48.5769C44.4682 48.458 45.248 48.2339 45.8576 47.8685C46.6828 47.374 47.374 46.6828 47.8686 45.8576C48.2339 45.2479 48.458 44.4682 48.577 43.1945C48.6003 42.9443 48.6143 42.68 48.6297 42.4H25.3703C25.3857 42.68 25.3997 42.9443 25.423 43.1945ZM36.1 27.1C33.7604 27.1 32.0988 27.1023 30.8055 27.223C29.5318 27.342 28.752 27.5661 28.1424 27.9314C27.3172 28.426 26.626 29.1172 26.1314 29.9424C25.7661 30.552 25.542 31.3318 25.423 32.6055C25.3023 33.8988 25.3 35.5604 25.3 37.9C25.3 38.5501 25.3059 39.1479 25.3088 39.7H48.6912C48.6941 39.1479 48.7 38.5501 48.7 37.9C48.7 35.5604 48.6977 33.8988 48.577 32.6055C48.458 31.3318 48.2339 30.552 47.8686 29.9424C47.374 29.1172 46.6828 28.426 45.8576 27.9314C45.248 27.5661 44.4682 27.342 43.1945 27.223C41.9012 27.1023 40.2396 27.1 37.9 27.1H36.1Z" fill="#421D24"/>
</g>
</g>
</g>
<rect x="0.5" y="0.5" width="73" height="73" rx="12.5" stroke="#FCFAF7" stroke-opacity="0.2"/>
</g>
</g>
</g>
</g>
</g>
</g>
</g>
<defs>
<linearGradient id="paint0_linear_10489_9164" x1="12.334" y1="78" x2="68.334" y2="1" gradientUnits="userSpaceOnUse">
<stop stop-color="#F0D8CB"/>
<stop offset="0.408654" stop-color="#ECCCDE"/>
<stop offset="1" stop-color="#EEE7FB"/>
</linearGradient>
<clipPath id="clip0_10489_9164">
<rect x="1" y="1" width="72" height="72" rx="12" fill="white"/>
</clipPath>
</defs>
</svg>
